<?xml version="1.0" encoding="UTF-8" standalone="no"?>
<!-- Created with Inkscape (http://www.inkscape.org/) -->

<svg
   version="1.1"
   id="svg1"
   width="302.39999"
   height="302.39999"
   viewBox="0 0 302.39999 302.39999"
   sodipodi:docname="upload_5rif6nyjykwhfqluerlnozvwzm.pdf"
   xmlns:inkscape="http://www.inkscape.org/namespaces/inkscape"
   xmlns:sodipodi="http://sodipodi.sourceforge.net/DTD/sodipodi-0.dtd"
   xmlns="http://www.w3.org/2000/svg"
   xmlns:svg="http://www.w3.org/2000/svg">
  <defs
     id="defs1">
    <clipPath
       clipPathUnits="userSpaceOnUse"
       id="clipPath3">
      <path
         d="M 0,1.5259e-5 H 226.8 V 226.80002 H 0 Z"
         clip-rule="evenodd"
         id="path3" />
    </clipPath>
    <clipPath
       clipPathUnits="userSpaceOnUse"
       id="clipPath4">
      <path
         d="m 0.39675,0.36911 h 183.75 v 200.25 h -183.75 z"
         clip-rule="evenodd"
         id="path4" />
    </clipPath>
    <clipPath
       clipPathUnits="userSpaceOnUse"
       id="clipPath5">
      <path
         d="m 0.39675,0.36911 h 183.75 v 200.25 h -183.75 z"
         clip-rule="evenodd"
         id="path5" />
    </clipPath>
    <clipPath
       clipPathUnits="userSpaceOnUse"
       id="clipPath6">
      <path
         d="m 0.39675,0.36911 h 183.75 v 200.25 h -183.75 z"
         clip-rule="evenodd"
         id="path6" />
    </clipPath>
    <clipPath
       clipPathUnits="userSpaceOnUse"
       id="clipPath10">
      <path
         d="M 19.44,10.8 H 207.36 V 216 H 19.44 Z"
         transform="matrix(1.3333333,0,0,-1.3333333,0,302.4)"
         clip-rule="evenodd"
         id="path10" />
    </clipPath>
  </defs>
  <sodipodi:namedview
     id="namedview1"
     pagecolor="#ffffff"
     bordercolor="#000000"
     borderopacity="0.25"
     inkscape:showpageshadow="2"
     inkscape:pageopacity="0.0"
     inkscape:pagecheckerboard="0"
     inkscape:deskcolor="#d1d1d1">
    <inkscape:page
       x="0"
       y="0"
       inkscape:label="1"
       id="page1"
       width="302.39999"
       height="302.39999"
       margin="0"
       bleed="0" />
  </sodipodi:namedview>
  <g
     id="g1"
     inkscape:groupmode="layer"
     inkscape:label="1">
    <g
       id="g2">
      <path
         id="path2"
         d="M 0,0 H 226.8 V 226.8 H 0 Z"
         style="fill:#ffffff;fill-opacity:1;fill-rule:evenodd;stroke:none"
         transform="matrix(1.3333333,0,0,-1.3333333,0,302.4)"
         clip-path="url(#clipPath3)" />
    </g>
    <g
       id="g3">
      <g
         id="g9"
         clip-path="url(#clipPath10)">
        <path
           d="m 109.55,181.38 c -2.8,-1.69 -6.29,-4.59 -7.69,-6.49 -2.997,-3.89 -3.197,-4.49 -1.1,-4.49 2,0 2,-0.2 -1.498,-6.29 -2.896,-5.2 -2.996,-5.79 -2.996,-17.98 0,-11.58 0.2,-12.78 1.998,-13.88 2.496,-1.6 2.596,-3.19 0.199,-4.39 -0.998,-0.5 -9.487,-6.19 -18.774,-12.59 C 66.507,106.09 61.014,101.59 54.523,94.502 45.635,84.915 42.539,83.417 39.044,87.312 c -3.096,3.395 -2.097,7.69 3.096,13.378 6.491,7.29 19.473,22.77 21.471,25.77 0.899,1.3 1.697,4.19 1.697,6.29 0,10.39 -15.878,12.18 -21.77,2.5 -2.297,-3.8 -4.594,-10.69 -3.895,-11.39 0.799,-0.8 7.989,2.5 10.386,4.8 1.199,1.09 2.697,3.59 3.396,5.49 0.998,2.99 1.398,3.39 4.194,3.09 2.996,-0.3 3.196,-0.6 3.395,-4.29 0.3,-3.79 -0.399,-4.79 -13.581,-20.27 -7.59,-8.89 -14.081,-17.279 -14.281,-18.477 -1.797,-9.188 7.59,-15.579 15.679,-10.786 5.193,2.996 5.592,2.797 4.993,-3.095 C 52.626,70.036 52.326,68.937 48.232,64.543 l -4.095,-4.494 0.4,-11.484 c 0.299,-8.888 0.699,-12.084 2.097,-14.081 2.097,-3.096 1.897,-3.296 -7.29,-7.889 C 35.749,24.797 32.054,22.6 30.955,21.701 29.357,20.303 22.367,7.6205 22.367,6.1225 c 0,-0.2996 35.252,-0.4993 78.393,-0.4993 h 78.39 l -0.1,3.2955 c 0,1.6973 -0.6,7.0903 -1.29,11.8843 -0.9,6.89 -1.8,9.387 -3.7,11.484 -4.99,5.592 -4.99,5.393 -3.39,13.881 l 1.39,7.889 -2.69,2.297 c -1.5,1.199 -4.6,3.795 -6.89,5.792 -2.8,2.297 -4.3,4.394 -4.3,5.792 0,3.496 -3.69,7.59 -6.79,7.59 -1.5,0 -3.19,0.4 -3.79,0.799 -0.6,0.399 -2.4,5.093 -3.9,10.586 l -2.79,9.786 4.09,8.191 c 7.39,14.48 6.49,24.76 -3,32.95 -7.09,6 -6.39,7.69 1.9,5.1 1.9,-0.6 2.5,-0.1 4.1,3.59 2.69,6.09 5.19,13.98 5.19,16.38 0,1.5 -2.4,3.59 -8.59,7.39 -4.69,3 -10.09,7.39 -12.08,9.79 l -3.5,4.29 h -7.19 c -6.09,0 -7.89,-0.5 -12.28,-3 z m 18.67,-2.99 c 0.9,-1.7 0.8,-2 -1.1,-2 -3.29,0 -0.59,-2.6 3.6,-3.39 3.39,-0.7 18.47,-9.89 18.47,-11.29 0,-0.5 -0.3,-1.8 -0.59,-3 -0.6,-1.99 -1.3,-2.29 -6.3,-2.29 h -5.69 l -2.2,-4.6 -2.19,-4.49 -4,3.1 c -3.49,2.79 -3.99,3.69 -3.99,7.19 0,4.09 0,4.09 -2,2.29 -1.5,-1.39 -2,-2.89 -1.8,-5.39 0.3,-3.1 1.7,-4.69 11.19,-13.08 12.78,-11.29 15.18,-15.48 13.58,-23.77 -0.9,-5.09 -2.9,-10.19 -3.89,-10.19 -0.4,0 -1.2,3.1 -1.8,7 -0.6,3.79 -1.8,8.08 -2.7,9.48 -0.9,1.3 -6.09,5.89 -11.68,9.99 -5.5,4.19 -10.39,8.59 -10.79,9.79 -0.5,1.19 -1.2,4.49 -1.5,7.19 -0.6,4.39 -0.4,5.49 1.9,8.78 2.3,3.5 2.4,4 1.1,5.9 -2.4,3.39 -0.3,6.19 3.99,5.49 3.6,-0.6 4.5,0.8 2.2,3.09 -1.5,1.5 -7.39,1.6 -8.29,0.2 -0.8,-1.29 -5.19,-1.29 -5.99,0 -0.3,0.5 1.6,2 4.19,3.4 6.3,3.29 14.69,3.59 16.28,0.6 z m -17.37,-12.38 c 0.4,-2.4 0.1,-4.2 -1,-5.8 -1.9,-2.69 -2,-7.29 -0.4,-15.28 l 1.1,-5.79 10.08,-7.39 c 5.9,-4.29 10.99,-8.89 12.29,-11.08 2.59,-4.2 3.09,-8.69 0.9,-7.89 -0.8,0.3 -8.39,5.39 -16.98,11.38 l -15.58,10.79 v 11.98 c 0,11.69 0.1,11.98 3.2,17.18 1.79,2.89 3.79,5.29 4.49,5.29 0.6,0 1.5,-1.5 1.9,-3.39 z m 34.05,-14.39 c 1,-0.69 1,-1.09 0,-2.39 -1.4,-2 -6.69,-1.3 -6.69,0.7 0,2.19 4.29,3.19 6.69,1.69 z m -24.57,-35.25 c 7.89,-5.59 14.68,-10.58 15.08,-11.28 0.4,-0.6 0.8,-2.7 0.8,-4.6 0,-4.789 6.49,-27.059 8.19,-28.058 0.7,-0.499 2.7,-0.898 4.49,-0.898 2.2,0 3.6,-0.6 4.3,-1.998 1.7,-3.195 0.4,-3.994 -6.89,-3.994 h -6.69 l -7.89,13.981 c -4.3,7.689 -8.89,14.68 -10.09,15.479 -1.8,1.198 -2.1,2.097 -1.7,5.788 0.5,4.4 -0.89,8.69 -2.69,8.69 -0.6,0 -1,-1.7 -1,-3.69 0,-2.1 -0.3,-5.5 -0.6,-7.493 -0.6,-3.196 -1.2,-3.895 -4.19,-4.893 -2.1,-0.699 -6,-0.899 -9.59,-0.599 -3.397,0.299 -7.891,0.199 -10.088,-0.3 -4.693,-0.999 -5.392,-0.599 -3.595,2.097 1.798,2.996 0.5,3.595 -2.596,1.199 C 83.783,94.502 80.887,89.509 77.292,81.62 71.999,69.836 71.6,69.237 64.809,63.944 c -3.795,-3.096 -7.29,-5.892 -7.789,-6.292 -0.4,-0.399 -1.099,-3.994 -1.598,-8.089 -1.099,-8.388 -0.499,-9.986 3.994,-9.986 2.996,0 5.892,-2.297 5.892,-4.594 0,-1.098 -1.498,-1.398 -6.491,-1.398 -6.291,0 -6.591,0.1 -8.488,3.196 -1.598,2.696 -1.997,5.093 -1.997,12.583 0,8.588 0.199,9.387 2.496,11.384 4.594,3.995 5.692,6.791 6.991,18.375 1.997,17.077 2.097,17.177 25.864,33.657 10.886,7.49 20.377,13.68 21.067,13.68 0.7,0 7.69,-4.59 15.58,-10.09 z m -0.1,-29.857 c 0,-3.495 0.3,-3.895 2.3,-3.695 1.9,0.2 2.2,-0.299 2.5,-3.895 0.2,-3.395 0.6,-4.094 2.09,-3.694 1.2,0.299 2.4,-0.899 4.4,-4.494 l 2.69,-4.994 -7.78,-5.093 c -4.3,-2.796 -8.19,-5.093 -8.59,-5.093 -0.4,0 -2.3,1.598 -4.1,3.595 -3.19,3.396 -3.69,3.595 -7.79,2.996 -3.69,-0.599 -4.59,-0.299 -6.588,1.798 l -2.197,2.397 3.095,6.191 c 2.9,5.692 3.1,6.691 2.1,10.286 -0.5,2.297 -0.8,4.394 -0.5,4.894 0.3,0.399 3.09,0.798 6.19,0.798 3.1,0 6.39,0.5 7.19,0.999 3.4,2.197 4.99,1.198 4.99,-2.996 z M 82.285,72.932 c 0.699,-1.698 0.699,-3.795 0,-6.292 -1.797,-6.591 -1.498,-7.49 5.992,-12.683 3.795,-2.696 6.891,-5.392 6.991,-5.991 0,-0.6 -3.695,-4.095 -8.189,-7.69 -7.29,-5.892 -8.788,-6.691 -12.583,-6.691 -3.196,0 -4.394,0.4 -4.794,1.798 -1.298,4.394 -3.195,6.79 -6.091,7.689 -4.394,1.498 -4.494,1.698 -3.795,6.991 0.699,4.294 1.298,5.093 8.588,10.785 5.792,4.694 8.189,7.29 9.487,10.486 1.898,4.893 2.996,5.293 4.394,1.598 z m 14.58,-12.783 c 3.695,-2.896 5.095,-3.395 7.885,-2.896 3.3,0.499 6.5,-0.799 6.5,-2.796 0,-0.999 -6.5,-2.896 -9.79,-2.896 -2.597,0 -14.181,7.789 -14.181,9.487 0,3.695 4.194,3.195 9.586,-0.899 z m 64.115,-2.596 c 2.3,-1.698 4.19,-3.196 4.19,-3.396 0,-0.799 -18.67,-6.591 -25.16,-7.689 -6.89,-1.299 -8.19,-2.896 -2.3,-2.896 4.79,0 4.99,-1.299 0.7,-5.193 -3.3,-2.996 -5.19,-3.695 -13.28,-5.293 C 116.14,31.388 113.04,30.09 106.25,24.597 104.16,23 101.56,22.5 91.373,22.001 L 78.99,21.302 72.499,15.41 65.908,9.6178 H 47.632 c -10.086,0 -18.275,0.1997 -18.275,0.4992 0,0.3 0.899,2.297 1.998,4.494 1.597,3.096 3.695,4.793 11.384,8.888 l 9.288,5.093 h 22.169 c 12.383,0 22.07,0.399 22.07,0.899 0,0.499 -2.197,1.398 -4.993,2.097 -2.696,0.699 -4.993,1.498 -4.993,1.797 0,0.699 3.994,4.195 12.083,10.286 3.597,2.797 6.587,3.995 13.087,5.393 6.89,1.398 9.68,2.597 15.37,6.591 l 6.9,4.794 h 11.58 c 11.28,0.099 11.68,0 15.68,-2.896 z"
           style="fill:#000000;fill-opacity:1;fill-rule:nonzero;stroke:none"
           transform="matrix(1.3580352,0,0,-1.361084,25.92,288)"
           clip-path="url(#clipPath4)"
           id="path7" />
        <path
           d="m 117.74,167.4 c 0.3,-0.5 1,-1 1.59,-1 0.5,0 0.9,0.5 0.9,1 0,0.6 -0.7,1 -1.59,1 -0.8,0 -1.2,-0.4 -0.9,-1 z"
           style="fill:#000000;fill-opacity:1;fill-rule:nonzero;stroke:none"
           transform="matrix(1.3580352,0,0,-1.361084,25.92,288)"
           clip-path="url(#clipPath5)"
           id="path8" />
        <path
           d="m 132.22,166.6 c 0,-1.69 2.49,-3.19 5.19,-3.19 3.2,0 3.7,1.5 0.9,2.99 -2.3,1.2 -6.09,1.3 -6.09,0.2 z"
           style="fill:#000000;fill-opacity:1;fill-rule:nonzero;stroke:none"
           transform="matrix(1.3580352,0,0,-1.361084,25.92,288)"
           clip-path="url(#clipPath6)"
           id="path9" />
      </g>
    </g>
  </g>
</svg>
