<?xml version="1.0" encoding="UTF-8" standalone="no"?>
<!-- Created with Inkscape (http://www.inkscape.org/) -->

<svg
   version="1.1"
   id="svg1"
   width="1057.92"
   height="302.39999"
   viewBox="0 0 1057.92 302.39999"
   sodipodi:docname="upload_2xlbkzrdg5bevrzpucqyvdlv5m.pdf"
   xmlns:inkscape="http://www.inkscape.org/namespaces/inkscape"
   xmlns:sodipodi="http://sodipodi.sourceforge.net/DTD/sodipodi-0.dtd"
   xmlns="http://www.w3.org/2000/svg"
   xmlns:svg="http://www.w3.org/2000/svg">
  <defs
     id="defs1">
    <clipPath
       clipPathUnits="userSpaceOnUse"
       id="clipPath3">
      <path
         d="M 0,3.0518e-5 H 793.44 V 226.80003 H 0 Z"
         clip-rule="evenodd"
         id="path3" />
    </clipPath>
    <clipPath
       clipPathUnits="userSpaceOnUse"
       id="clipPath4">
      <path
         d="m 0.39675,0.36911 h 183.75 v 200.25 h -183.75 z"
         clip-rule="evenodd"
         id="path4" />
    </clipPath>
    <clipPath
       clipPathUnits="userSpaceOnUse"
       id="clipPath5">
      <path
         d="m 0.39675,0.36911 h 183.75 v 200.25 h -183.75 z"
         clip-rule="evenodd"
         id="path5" />
    </clipPath>
    <clipPath
       clipPathUnits="userSpaceOnUse"
       id="clipPath6">
      <path
         d="m 0.39675,0.36911 h 183.75 v 200.25 h -183.75 z"
         clip-rule="evenodd"
         id="path6" />
    </clipPath>
    <clipPath
       clipPathUnits="userSpaceOnUse"
       id="clipPath10">
      <path
         d="M 1.1845e-5,10.668 H 187.20001 v 205.33 H 1.1845e-5 Z"
         transform="matrix(1.3333333,0,0,-1.3333333,0,302.4)"
         clip-rule="evenodd"
         id="path10" />
    </clipPath>
    <clipPath
       clipPathUnits="userSpaceOnUse"
       id="clipPath12">
      <path
         d="M 1.1823e-5,0 H 793.44001 V 226.8 H 1.1823e-5 Z"
         transform="matrix(1,0,0,-1,-198.6,98.863)"
         clip-rule="evenodd"
         id="path12" />
    </clipPath>
    <clipPath
       clipPathUnits="userSpaceOnUse"
       id="clipPath14">
      <path
         d="M 1.1823e-5,0 H 793.44001 V 226.8 H 1.1823e-5 Z"
         transform="matrix(1,0,0,-1,-209.25001,47.196999)"
         clip-rule="evenodd"
         id="path14" />
    </clipPath>
  </defs>
  <sodipodi:namedview
     id="namedview1"
     pagecolor="#ffffff"
     bordercolor="#000000"
     borderopacity="0.25"
     inkscape:showpageshadow="2"
     inkscape:pageopacity="0.0"
     inkscape:pagecheckerboard="0"
     inkscape:deskcolor="#d1d1d1">
    <inkscape:page
       x="0"
       y="0"
       inkscape:label="1"
       id="page1"
       width="1057.92"
       height="302.39999"
       margin="0"
       bleed="0" />
  </sodipodi:namedview>
  <g
     id="g1"
     inkscape:groupmode="layer"
     inkscape:label="1">
    <g
       id="g3">
      <g
         id="g9"
         clip-path="url(#clipPath10)">
        <path
           d="m 109.55,181.38 c -2.8,-1.69 -6.29,-4.59 -7.69,-6.49 -2.997,-3.89 -3.197,-4.49 -1.1,-4.49 2,0 2,-0.2 -1.498,-6.29 -2.896,-5.2 -2.996,-5.79 -2.996,-17.98 0,-11.58 0.2,-12.78 1.998,-13.88 2.496,-1.6 2.596,-3.19 0.199,-4.39 -0.998,-0.5 -9.487,-6.19 -18.774,-12.59 C 66.507,106.09 61.014,101.59 54.523,94.502 45.635,84.915 42.539,83.417 39.044,87.312 c -3.096,3.395 -2.097,7.69 3.096,13.378 6.491,7.29 19.473,22.77 21.471,25.77 0.899,1.3 1.697,4.19 1.697,6.29 0,10.39 -15.878,12.18 -21.77,2.5 -2.297,-3.8 -4.594,-10.69 -3.895,-11.39 0.799,-0.8 7.989,2.5 10.386,4.8 1.199,1.09 2.697,3.59 3.396,5.49 0.998,2.99 1.398,3.39 4.194,3.09 2.996,-0.3 3.196,-0.6 3.395,-4.29 0.3,-3.79 -0.399,-4.79 -13.581,-20.27 -7.59,-8.89 -14.081,-17.279 -14.281,-18.477 -1.797,-9.188 7.59,-15.579 15.679,-10.786 5.193,2.996 5.592,2.797 4.993,-3.095 C 52.626,70.036 52.326,68.937 48.232,64.543 l -4.095,-4.494 0.4,-11.484 c 0.299,-8.888 0.699,-12.084 2.097,-14.081 2.097,-3.096 1.897,-3.296 -7.29,-7.889 C 35.749,24.797 32.054,22.6 30.955,21.701 29.357,20.303 22.367,7.6205 22.367,6.1225 c 0,-0.2996 35.252,-0.4993 78.393,-0.4993 h 78.39 l -0.1,3.2955 c 0,1.6973 -0.6,7.0903 -1.29,11.8843 -0.9,6.89 -1.8,9.387 -3.7,11.484 -4.99,5.592 -4.99,5.393 -3.39,13.881 l 1.39,7.889 -2.69,2.297 c -1.5,1.199 -4.6,3.795 -6.89,5.792 -2.8,2.297 -4.3,4.394 -4.3,5.792 0,3.496 -3.69,7.59 -6.79,7.59 -1.5,0 -3.19,0.4 -3.79,0.799 -0.6,0.399 -2.4,5.093 -3.9,10.586 l -2.79,9.786 4.09,8.191 c 7.39,14.48 6.49,24.76 -3,32.95 -7.09,6 -6.39,7.69 1.9,5.1 1.9,-0.6 2.5,-0.1 4.1,3.59 2.69,6.09 5.19,13.98 5.19,16.38 0,1.5 -2.4,3.59 -8.59,7.39 -4.69,3 -10.09,7.39 -12.08,9.79 l -3.5,4.29 h -7.19 c -6.09,0 -7.89,-0.5 -12.28,-3 z m 18.67,-2.99 c 0.9,-1.7 0.8,-2 -1.1,-2 -3.29,0 -0.59,-2.6 3.6,-3.39 3.39,-0.7 18.47,-9.89 18.47,-11.29 0,-0.5 -0.3,-1.8 -0.59,-3 -0.6,-1.99 -1.3,-2.29 -6.3,-2.29 h -5.69 l -2.2,-4.6 -2.19,-4.49 -4,3.1 c -3.49,2.79 -3.99,3.69 -3.99,7.19 0,4.09 0,4.09 -2,2.29 -1.5,-1.39 -2,-2.89 -1.8,-5.39 0.3,-3.1 1.7,-4.69 11.19,-13.08 12.78,-11.29 15.18,-15.48 13.58,-23.77 -0.9,-5.09 -2.9,-10.19 -3.89,-10.19 -0.4,0 -1.2,3.1 -1.8,7 -0.6,3.79 -1.8,8.08 -2.7,9.48 -0.9,1.3 -6.09,5.89 -11.68,9.99 -5.5,4.19 -10.39,8.59 -10.79,9.79 -0.5,1.19 -1.2,4.49 -1.5,7.19 -0.6,4.39 -0.4,5.49 1.9,8.78 2.3,3.5 2.4,4 1.1,5.9 -2.4,3.39 -0.3,6.19 3.99,5.49 3.6,-0.6 4.5,0.8 2.2,3.09 -1.5,1.5 -7.39,1.6 -8.29,0.2 -0.8,-1.29 -5.19,-1.29 -5.99,0 -0.3,0.5 1.6,2 4.19,3.4 6.3,3.29 14.69,3.59 16.28,0.6 z m -17.37,-12.38 c 0.4,-2.4 0.1,-4.2 -1,-5.8 -1.9,-2.69 -2,-7.29 -0.4,-15.28 l 1.1,-5.79 10.08,-7.39 c 5.9,-4.29 10.99,-8.89 12.29,-11.08 2.59,-4.2 3.09,-8.69 0.9,-7.89 -0.8,0.3 -8.39,5.39 -16.98,11.38 l -15.58,10.79 v 11.98 c 0,11.69 0.1,11.98 3.2,17.18 1.79,2.89 3.79,5.29 4.49,5.29 0.6,0 1.5,-1.5 1.9,-3.39 z m 34.05,-14.39 c 1,-0.69 1,-1.09 0,-2.39 -1.4,-2 -6.69,-1.3 -6.69,0.7 0,2.19 4.29,3.19 6.69,1.69 z m -24.57,-35.25 c 7.89,-5.59 14.68,-10.58 15.08,-11.28 0.4,-0.6 0.8,-2.7 0.8,-4.6 0,-4.789 6.49,-27.059 8.19,-28.058 0.7,-0.499 2.7,-0.898 4.49,-0.898 2.2,0 3.6,-0.6 4.3,-1.998 1.7,-3.195 0.4,-3.994 -6.89,-3.994 h -6.69 l -7.89,13.981 c -4.3,7.689 -8.89,14.68 -10.09,15.479 -1.8,1.198 -2.1,2.097 -1.7,5.788 0.5,4.4 -0.89,8.69 -2.69,8.69 -0.6,0 -1,-1.7 -1,-3.69 0,-2.1 -0.3,-5.5 -0.6,-7.493 -0.6,-3.196 -1.2,-3.895 -4.19,-4.893 -2.1,-0.699 -6,-0.899 -9.59,-0.599 -3.397,0.299 -7.891,0.199 -10.088,-0.3 -4.693,-0.999 -5.392,-0.599 -3.595,2.097 1.798,2.996 0.5,3.595 -2.596,1.199 C 83.783,94.502 80.887,89.509 77.292,81.62 71.999,69.836 71.6,69.237 64.809,63.944 c -3.795,-3.096 -7.29,-5.892 -7.789,-6.292 -0.4,-0.399 -1.099,-3.994 -1.598,-8.089 -1.099,-8.388 -0.499,-9.986 3.994,-9.986 2.996,0 5.892,-2.297 5.892,-4.594 0,-1.098 -1.498,-1.398 -6.491,-1.398 -6.291,0 -6.591,0.1 -8.488,3.196 -1.598,2.696 -1.997,5.093 -1.997,12.583 0,8.588 0.199,9.387 2.496,11.384 4.594,3.995 5.692,6.791 6.991,18.375 1.997,17.077 2.097,17.177 25.864,33.657 10.886,7.49 20.377,13.68 21.067,13.68 0.7,0 7.69,-4.59 15.58,-10.09 z m -0.1,-29.857 c 0,-3.495 0.3,-3.895 2.3,-3.695 1.9,0.2 2.2,-0.299 2.5,-3.895 0.2,-3.395 0.6,-4.094 2.09,-3.694 1.2,0.299 2.4,-0.899 4.4,-4.494 l 2.69,-4.994 -7.78,-5.093 c -4.3,-2.796 -8.19,-5.093 -8.59,-5.093 -0.4,0 -2.3,1.598 -4.1,3.595 -3.19,3.396 -3.69,3.595 -7.79,2.996 -3.69,-0.599 -4.59,-0.299 -6.588,1.798 l -2.197,2.397 3.095,6.191 c 2.9,5.692 3.1,6.691 2.1,10.286 -0.5,2.297 -0.8,4.394 -0.5,4.894 0.3,0.399 3.09,0.798 6.19,0.798 3.1,0 6.39,0.5 7.19,0.999 3.4,2.197 4.99,1.198 4.99,-2.996 z M 82.285,72.932 c 0.699,-1.698 0.699,-3.795 0,-6.292 -1.797,-6.591 -1.498,-7.49 5.992,-12.683 3.795,-2.696 6.891,-5.392 6.991,-5.991 0,-0.6 -3.695,-4.095 -8.189,-7.69 -7.29,-5.892 -8.788,-6.691 -12.583,-6.691 -3.196,0 -4.394,0.4 -4.794,1.798 -1.298,4.394 -3.195,6.79 -6.091,7.689 -4.394,1.498 -4.494,1.698 -3.795,6.991 0.699,4.294 1.298,5.093 8.588,10.785 5.792,4.694 8.189,7.29 9.487,10.486 1.898,4.893 2.996,5.293 4.394,1.598 z m 14.58,-12.783 c 3.695,-2.896 5.095,-3.395 7.885,-2.896 3.3,0.499 6.5,-0.799 6.5,-2.796 0,-0.999 -6.5,-2.896 -9.79,-2.896 -2.597,0 -14.181,7.789 -14.181,9.487 0,3.695 4.194,3.195 9.586,-0.899 z m 64.115,-2.596 c 2.3,-1.698 4.19,-3.196 4.19,-3.396 0,-0.799 -18.67,-6.591 -25.16,-7.689 -6.89,-1.299 -8.19,-2.896 -2.3,-2.896 4.79,0 4.99,-1.299 0.7,-5.193 -3.3,-2.996 -5.19,-3.695 -13.28,-5.293 C 116.14,31.388 113.04,30.09 106.25,24.597 104.16,23 101.56,22.5 91.373,22.001 L 78.99,21.302 72.499,15.41 65.908,9.6178 H 47.632 c -10.086,0 -18.275,0.1997 -18.275,0.4992 0,0.3 0.899,2.297 1.998,4.494 1.597,3.096 3.695,4.793 11.384,8.888 l 9.288,5.093 h 22.169 c 12.383,0 22.07,0.399 22.07,0.899 0,0.499 -2.197,1.398 -4.993,2.097 -2.696,0.699 -4.993,1.498 -4.993,1.797 0,0.699 3.994,4.195 12.083,10.286 3.597,2.797 6.587,3.995 13.087,5.393 6.89,1.398 9.68,2.597 15.37,6.591 l 6.9,4.794 h 11.58 c 11.28,0.099 11.68,0 15.68,-2.896 z"
           style="fill:#000000;fill-opacity:1;fill-rule:nonzero;stroke:none"
           transform="matrix(1.3632384,0,0,-1.3618959,-1.92,288.176)"
           clip-path="url(#clipPath4)"
           id="path7" />
        <path
           d="m 117.74,167.4 c 0.3,-0.5 1,-1 1.59,-1 0.5,0 0.9,0.5 0.9,1 0,0.6 -0.7,1 -1.59,1 -0.8,0 -1.2,-0.4 -0.9,-1 z"
           style="fill:#000000;fill-opacity:1;fill-rule:nonzero;stroke:none"
           transform="matrix(1.3632384,0,0,-1.3618959,-1.92,288.176)"
           clip-path="url(#clipPath5)"
           id="path8" />
        <path
           d="m 132.22,166.6 c 0,-1.69 2.49,-3.19 5.19,-3.19 3.2,0 3.7,1.5 0.9,2.99 -2.3,1.2 -6.09,1.3 -6.09,0.2 z"
           style="fill:#000000;fill-opacity:1;fill-rule:nonzero;stroke:none"
           transform="matrix(1.3632384,0,0,-1.3618959,-1.92,288.176)"
           clip-path="url(#clipPath6)"
           id="path9" />
      </g>
    </g>
    <g
       id="g10">
      <path
         id="path11"
         d="M 47.449805,-4.765625e-4 H 7.5123047 V -63.176258 H 20.977148 V -11.87157 H 47.449805 Z M 82.301367,0.84327344 c -6.509765,0 -12.079101,-1.31835938 -16.710937,-3.96093754 -4.634766,-2.6484375 -8.144532,-6.3925781 -10.535157,-11.2382809 -2.390625,-4.851563 -3.585937,-10.582032 -3.585937,-17.191407 0,-6.600585 1.195312,-12.339843 3.585937,-17.214843 2.390625,-4.88086 5.900391,-8.642578 10.535157,-11.285157 4.631836,-2.648437 10.201172,-3.972656 16.710937,-3.972656 6.47461,0 12.023438,1.324219 16.640625,3.972656 4.617188,2.642579 8.121098,6.404297 10.511718,11.285157 2.39649,4.875 3.59766,10.614258 3.59766,17.214843 0,6.580079 -1.20117,12.301758 -3.59766,17.167969 -2.39062,4.8603518 -5.89453,8.6132814 -10.511718,11.2617189 -4.617187,2.64257816 -10.166015,3.96093754 -16.640625,3.96093754 z m 0,-11.21484344 c 3.84961,0 7.03418,-0.928711 9.550781,-2.789063 2.522461,-1.866211 4.371094,-4.385742 5.542969,-7.558594 1.171875,-3.17871 1.757813,-6.788085 1.757813,-10.828125 0,-4.060546 -0.585938,-7.67871 -1.757813,-10.851562 -1.171875,-3.178711 -3.011719,-5.698242 -5.519531,-7.558594 -2.501953,-1.866211 -5.692383,-2.800781 -9.574219,-2.800781 -5.789062,0 -10.063476,1.96582 -12.820312,5.894531 -2.750977,3.922852 -4.125,9.029297 -4.125,15.316406 0,4.04004 0.577148,7.649415 1.734375,10.828125 1.163086,3.172852 3.011718,5.692383 5.542968,7.558594 2.53125,1.860352 5.753907,2.789063 9.667969,2.789063 z m -9.011719,-58.113282 c -1.658203,0 -3.035156,-0.521484 -4.136718,-1.570312 -1.095703,-1.045898 -1.640625,-2.381836 -1.640625,-4.007813 0,-1.631835 0.544922,-2.970703 1.640625,-4.019531 1.101562,-1.045898 2.478515,-1.570312 4.136718,-1.570312 1.623047,0 2.976563,0.524414 4.054688,1.570312 1.083984,1.048828 1.628906,2.387696 1.628906,4.019531 0,1.625977 -0.544922,2.961915 -1.628906,4.007813 -1.078125,1.048828 -2.431641,1.570312 -4.054688,1.570312 z m 18.070313,0 c -1.625977,0 -2.982422,-0.521484 -4.066406,-1.570312 -1.078125,-1.045898 -1.617188,-2.381836 -1.617188,-4.007813 0,-1.631835 0.539063,-2.970703 1.617188,-4.019531 1.083984,-1.045898 2.440429,-1.570312 4.066406,-1.570312 1.655273,0 3.029297,0.524414 4.125,1.570312 1.101562,1.048828 1.652344,2.387696 1.652344,4.019531 0,1.625977 -0.550782,2.961915 -1.652344,4.007813 -1.095703,1.048828 -2.469727,1.570312 -4.125,1.570312 z M 150.65977,-4.765625e-4 H 136.57383 L 117.84727,-63.176258 h 13.89843 l 11.8711,47.167969 12.52734,-47.167969 h 13.47656 l 12.52735,47.167969 11.88281,-47.167969 h 13.79297 L 188.95664,-4.765625e-4 H 174.9293 L 162.71836,-46.793445 Z m 106.92773,0 H 215.06016 V -63.176258 h 42.52734 v 11.167969 H 228.525 v 14.367187 h 26.28516 v 10.792969 H 228.525 v 15.679688 h 29.0625 z m 25.46777,0 H 270.43418 V -63.176258 h 13.18359 l 28.73438,42.058594 v -42.058594 h 12.66797 V -4.765625e-4 h -13.1836 L 283.05527,-42.387195 Z M 361.23398,0.84327344 c -5.00976,0 -9.43945,-0.70605469 -13.28906,-2.10937504 -3.84375,-1.40625 -6.86426,-3.609375 -9.05859,-6.609375 -2.18848,-3.0058594 -3.25195,-6.8261714 -3.1875,-11.4609374 h 13.80469 c 0.12304,3.375 1.22461,5.794922 3.30468,7.253906 2.08594,1.453125 4.97168,2.1796877 8.66016,2.1796877 3.41309,0 6.11133,-0.6005857 8.09766,-1.8046877 1.99218,-1.209961 2.98828,-3.002929 2.98828,-5.378906 0,-1.655273 -0.41016,-3.029297 -1.23047,-4.125 -0.81445,-1.101563 -2.20313,-2.088867 -4.17188,-2.964844 -1.96875,-0.873047 -4.88086,-1.857422 -8.73047,-2.953125 -4.82226,-1.341797 -8.74218,-2.765625 -11.76562,-4.265625 -3.01758,-1.505859 -5.36133,-3.457031 -7.03125,-5.847656 -1.67285,-2.396484 -2.50781,-5.44043 -2.50781,-9.128906 0,-5.91211 2.10937,-10.324219 6.32812,-13.230469 4.22461,-2.912109 9.91992,-4.371094 17.08594,-4.371094 4.50586,0 8.55762,0.673828 12.15234,2.015625 3.60059,1.344727 6.45703,3.386719 8.56641,6.128906 2.11523,2.736329 3.17578,6.105469 3.17578,10.113282 H 370.6207 c 0.12305,-2.507813 -0.79101,-4.432617 -2.74218,-5.777344 -1.95411,-1.341797 -4.41797,-2.015625 -7.39454,-2.015625 -2.87695,0 -5.1914,0.524414 -6.94921,1.570312 -1.75196,1.048829 -2.625,2.589844 -2.625,4.628907 0,1.283203 0.39843,2.384765 1.19531,3.304687 0.79687,0.922852 2.22656,1.836914 4.28906,2.742188 2.06836,0.908203 5.10938,1.942383 9.11719,3.105468 5.16211,1.5 9.20508,3.032227 12.1289,4.59375 2.92969,1.564454 5.11231,3.56836 6.55079,6.011719 1.43554,2.4375 2.15625,5.645508 2.15625,9.621094 0,6.351562 -2.28516,11.071289 -6.85547,14.1562499 -4.56446,3.0791016 -10.64942,4.61718754 -18.25782,4.61718754 z m 57.542,-0.8437500025 H 405.29941 V -51.961414 h -16.85156 v -11.214844 h 47.02735 v 11.214844 h -16.69922 z m 67.60547,0 H 443.8541 V -63.176258 h 42.52735 v 11.167969 h -29.0625 v 14.367187 h 26.28515 v 10.792969 h -26.28515 v 15.679688 h 29.0625 z m 26.11816,0 H 499.03477 V -63.176258 h 13.46484 z m 27.6123,0 H 527.49082 V -63.176258 h 13.18359 l 28.73438,42.058594 v -42.058594 h 12.66797 V -4.765625e-4 h -13.1836 L 540.11191,-42.387195 Z m 0,0"
         style="fill:#000000;fill-opacity:1;fill-rule:nonzero;stroke:none"
         aria-label="LÖWENSTEIN"
         transform="matrix(1.3333333,0,0,1.3333333,264.8,170.58267)"
         clip-path="url(#clipPath12)" />
    </g>
    <g
       id="g12">
      <path
         id="path13"
         d="m 20.132812,0.5845 c -3.46875,0 -6.536132,-0.48632813 -9.199218,-1.453125 C 8.2763672,-1.8442109 6.1904297,-3.3705781 4.6757812,-5.4506563 3.1582031,-7.5278047 2.4257813,-10.167453 2.4726563,-13.372531 h 9.5390627 c 0.08496,2.33789 0.846679,4.0078122 2.285156,5.0156247 1.444336,1.0019532 3.445312,1.5 6,1.5 2.358398,0 4.22168,-0.4130859 5.589844,-1.2421875 1.374023,-0.8349609 2.0625,-2.0742192 2.0625,-3.7148442 0,-1.148437 -0.28125,-2.100585 -0.84375,-2.859375 -0.5625,-0.755859 -1.529297,-1.435546 -2.894532,-2.039062 -1.359375,-0.609375 -3.37207,-1.291992 -6.035156,-2.050781 -3.328125,-0.928711 -6.041015,-1.913086 -8.132812,-2.953125 -2.0859378,-1.03711 -3.7089846,-2.384766 -4.8632815,-4.042969 -1.1572266,-1.655273 -1.734375,-3.761719 -1.734375,-6.316406 0,-4.092774 1.4589844,-7.142578 4.3828125,-9.152344 2.920898,-2.015625 6.858398,-3.023438 11.8125,-3.023438 3.117187,0 5.917969,0.465821 8.402344,1.394532 2.490234,0.93164 4.467773,2.34375 5.929687,4.242187 1.458985,1.892578 2.191406,4.22461 2.191406,6.996094 H 26.625 c 0.08496,-1.734375 -0.547852,-3.064453 -1.898438,-3.996094 -1.353515,-0.928711 -3.058593,-1.394531 -5.121093,-1.394531 -1.986328,0 -3.585938,0.363281 -4.804688,1.089844 -1.21289,0.720703 -1.816406,1.78125 -1.816406,3.1875 0,0.890625 0.272461,1.658203 0.820313,2.296875 0.55371,0.632812 1.546875,1.265625 2.976562,1.898437 1.429687,0.626953 3.530273,1.341797 6.304687,2.144531 3.56836,1.04004 6.366211,2.103516 8.390625,3.1875 2.021485,1.078125 3.530274,2.460938 4.523438,4.148438 0.999023,1.6875 1.5,3.908203 1.5,6.65625 0,4.3916016 -1.582031,7.6523437 -4.746094,9.7851562 C 29.595703,-0.48190625 25.388672,0.5845 20.132812,0.5845 Z M 59.727539,-0.0014375 H 50.399414 V -35.942844 H 38.750977 v -7.757812 h 32.53125 v 7.757812 H 59.727539 Z m 46.218751,0 H 76.532227 V -43.700656 H 105.94629 V -35.978 H 85.848633 v 9.9375 h 18.187497 v 7.464844 H 85.848633 v 10.8515622 h 20.097657 z m 26.73926,0.9375 c -6.32227,0 -10.98633,-1.56152344 -13.99219,-4.6875 -3.00879,-3.1230469 -4.51172,-7.6875005 -4.51172,-13.6875005 v -26.261718 h 9.57422 v 26.074218 c 0,3.57129 0.72656,6.257813 2.17969,8.0625005 1.45312,1.8046875 3.72656,2.7070312 6.82031,2.7070312 3.07031,0 5.31152,-0.8935546 6.72656,-2.6835937 1.4209,-1.795898 2.13281,-4.491211 2.13281,-8.085938 v -26.074218 h 9.60938 v 26.261718 c 0,6 -1.50586,10.5644536 -4.51172,13.6875005 -3.00879,3.12597656 -7.68457,4.6875 -14.02734,4.6875 z m 57.56836,-0.9375 H 160.83984 V -43.700656 h 29.41407 V -35.978 h -20.09766 v 9.9375 h 18.1875 v 7.464844 h -18.1875 v 10.8515622 h 20.09766 z m 8.01855,0 V -43.700656 h 18.08203 c 4.52344,0 8.11524,0.966797 10.78125,2.894531 2.66309,1.921875 3.9961,4.986328 3.9961,9.1875 0,2.789062 -0.75586,5.141602 -2.26172,7.054687 -1.5,1.916016 -3.73535,3.28711 -6.70313,4.113282 1.81934,0.28125 3.27539,0.826172 4.3711,1.628906 1.09277,0.796875 1.98046,1.869141 2.66015,3.210937 0.67969,1.335938 1.33594,3.140625 1.96875,5.414063 l 2.88281,10.1953125 h -9.53906 l -2.05078,-8.34375 c -0.51562,-2.2089845 -1.08984,-3.9052735 -1.72266,-5.0859375 -0.62695,-1.177734 -1.40039,-2.006836 -2.32031,-2.484375 -0.91406,-0.474609 -2.12988,-0.714844 -3.64453,-0.714844 h -7.18359 V -0.0014375 Z M 214.7959,-24.282688 c 2.12402,0 3.78808,-0.518554 4.99219,-1.558593 1.20117,-1.03711 1.80468,-2.510742 1.80468,-4.417969 0,-1.857422 -0.56836,-3.275391 -1.69922,-4.253906 -1.125,-0.975586 -2.64843,-1.464844 -4.57031,-1.464844 h -7.73437 v 11.695312 z m 25.23047,24.2812505 V -43.700656 h 15 c 4.85156,0 8.62793,0.911133 11.33203,2.730468 2.70117,1.813477 4.05469,4.541016 4.05469,8.179688 0,2.273437 -0.56836,4.21582 -1.69922,5.824219 -1.13379,1.611328 -2.67774,2.794922 -4.62891,3.550781 2.99121,0.609375 5.28809,1.836914 6.89063,3.679687 1.59961,1.836915 2.40234,4.142579 2.40234,6.914063 0,4.3066406 -1.45313,7.5205078 -4.35938,9.6445312 -2.90039,2.1181641 -7.00781,3.1757813 -12.32812,3.1757813 z m 14.87109,-26.0742185 c 1.77246,0 3.22266,-0.451172 4.34766,-1.359375 1.125,-0.905274 1.6875,-2.206055 1.6875,-3.902344 0,-1.6875 -0.54785,-2.912109 -1.64063,-3.679688 -1.08691,-0.764648 -2.55176,-1.148437 -4.39453,-1.148437 h -5.55469 v 10.089844 z m 1.46484,18.3515622 c 5.02149,0 7.53516,-1.9804687 7.53516,-5.9414062 0,-1.795898 -0.67969,-3.120117 -2.03906,-3.972656 -1.35352,-0.858399 -3.18457,-1.289063 -5.4961,-1.289063 h -7.01953 v 11.2031252 z m 54.30176,7.7226563 H 281.25 V -43.700656 h 29.41406 V -35.978 h -20.09765 v 9.9375 h 18.1875 v 7.464844 h -18.1875 v 10.8515622 h 20.09765 z m 8.75098,0 V -43.700656 h 18.08203 c 4.52344,0 8.11523,0.966797 10.78125,2.894531 2.66309,1.921875 3.99609,4.986328 3.99609,9.1875 0,2.789062 -0.75586,5.141602 -2.26171,7.054687 -1.5,1.916016 -3.73536,3.28711 -6.70313,4.113282 1.81934,0.28125 3.27539,0.826172 4.37109,1.628906 1.09278,0.796875 1.98047,1.869141 2.66016,3.210937 0.67969,1.335938 1.33594,3.140625 1.96875,5.414063 l 2.88281,10.1953125 h -9.53906 l -2.05078,-8.34375 c -0.51563,-2.2089845 -1.08984,-3.9052735 -1.72266,-5.0859375 -0.62695,-1.177734 -1.40039,-2.006836 -2.32031,-2.484375 -0.91406,-0.474609 -2.12988,-0.714844 -3.64453,-0.714844 h -7.18359 v 16.6289065 z m 16.52344,-24.2812505 c 2.12402,0 3.78808,-0.518554 4.99218,-1.558593 1.20118,-1.03711 1.80469,-2.510742 1.80469,-4.417969 0,-1.857422 -0.56836,-3.275391 -1.69922,-4.253906 -1.125,-0.975586 -2.64843,-1.464844 -4.57031,-1.464844 h -7.73437 v 11.695312 z m 29.64257,24.2812505 h -9.64453 l 15.67969,-43.6992185 h 9.77344 l 15.75,43.6992185 h -9.73828 L 384.35449,-9.44675 H 368.69824 Z M 376.49121,-34.478 l -5.55469,17.273437 h 11.14453 z m 39.0791,34.4765625 h -9.32812 V -35.942844 h -11.64844 v -7.757812 H 427.125 v 7.757812 h -11.55469 z m 34.7959,0.9375 c -6.32226,0 -10.98633,-1.56152344 -13.99219,-4.6875 -3.00879,-3.1230469 -4.51172,-7.6875005 -4.51172,-13.6875005 v -26.261718 h 9.57422 v 26.074218 c 0,3.57129 0.72657,6.257813 2.17969,8.0625005 1.45313,1.8046875 3.72656,2.7070312 6.82031,2.7070312 3.07032,0 5.31153,-0.8935546 6.72657,-2.6835937 1.42089,-1.795898 2.13281,-4.491211 2.13281,-8.085938 v -26.074218 h 9.60937 v 26.261718 c 0,6 -1.50586,10.5644536 -4.51172,13.6875005 -3.00878,3.12597656 -7.68457,4.6875 -14.02734,4.6875 z m 36.8291,-0.9375 h -8.74219 V -43.700656 h 9.12891 l 19.86328,29.085937 v -29.085937 h 8.76563 v 43.6992185 h -9.11719 L 487.19531,-29.32175 Z M 545.54004,0.5845 c -4.41504,0 -8.24707,-0.91699219 -11.49609,-2.7539063 -3.24317,-1.8427734 -5.72754,-4.453125 -7.45313,-7.828125 -1.71973,-3.3808597 -2.57812,-7.3242187 -2.57812,-11.8242187 0,-4.523438 0.85839,-8.475586 2.57812,-11.859375 1.72559,-3.389648 4.20703,-6.00293 7.44141,-7.839844 3.23437,-1.842773 7.06933,-2.765625 11.50781,-2.765625 3.14062,0 6.1084,0.547852 8.90625,1.640625 2.80371,1.095703 5.13574,2.765625 6.99609,5.015625 1.86621,2.25 2.95899,5.033203 3.28125,8.34375 h -9.53906 c -0.25781,-2.162109 -1.25098,-3.905273 -2.97656,-5.226562 -1.71973,-1.31836 -4.00489,-1.980469 -6.85547,-1.980469 -2.71289,0 -4.94531,0.65625 -6.70313,1.96875 -1.75195,1.306641 -3.03222,3.058594 -3.84375,5.261719 -0.80566,2.197265 -1.20703,4.675781 -1.20703,7.441406 0,2.750977 0.40137,5.223633 1.20703,7.417969 0.81153,2.197265 2.11231,3.949218 3.90235,5.2617185 1.78711,1.3125 4.0664,1.96875 6.83203,1.96875 3.07617,0 5.52246,-0.7675781 7.33594,-2.3085938 1.81933,-1.5380857 2.84765,-3.6035157 3.08203,-6.1992187 h -10.21875 v -7.441406 h 19.57031 v 4.511718 c 0,3.814454 -0.77344,7.166016 -2.32031,10.054688 -1.54688,2.8916016 -3.80567,5.1386719 -6.77344,6.7382812 C 553.25391,-0.21530469 549.69434,0.5845 545.54004,0.5845 Z m 0,0"
         style="fill:#000000;fill-opacity:1;fill-rule:nonzero;stroke:none"
         aria-label="STEUERBERATUNG"
         transform="matrix(1.3333333,0,0,1.3333333,279,239.47067)"
         clip-path="url(#clipPath14)" />
    </g>
  </g>
</svg>
